# Blender 4.5.2 LTS
# www.blender.org
mtllib 1m_Wall.mtl
o Cube.002
v 1.000000 0.000000 -0.000000
v 1.000000 1.000000 -0.000000
v -0.000000 1.000000 -0.000000
v 1.000000 0.500000 -0.000000
v 1.000000 0.750000 -0.000000
v -0.000000 1.000000 -0.072846
v 0.250000 0.000000 -0.000000
v 1.000000 1.000000 -0.072846
v 0.500000 1.000000 -0.000000
v 1.000000 0.000000 -0.072846
v 0.500000 0.250000 -0.000000
v 0.250000 0.250000 -0.000000
v 0.500000 0.500000 -0.000000
v 0.250000 0.500000 -0.000000
v 0.750000 0.750000 -0.000000
v 0.500000 0.750000 -0.000000
v 0.250000 0.750000 -0.000000
v 0.725000 0.025000 0.015299
v 0.725000 0.225000 0.015299
v 0.275000 0.225000 0.015299
v 0.275000 0.025000 0.015299
v 0.975000 0.275000 0.015299
v 0.975000 0.475000 0.015299
v 0.525000 0.475000 0.015299
v 0.525000 0.275000 0.015299
v 0.475000 0.275000 0.015299
v 0.475000 0.475000 0.015299
v 0.025000 0.475000 0.015299
v 0.025000 0.275000 0.015299
v 0.975000 0.775000 0.015299
v 0.975000 0.975000 0.015299
v 0.525000 0.975000 0.015299
v 0.525000 0.775000 0.015299
v 0.475000 0.775000 0.015299
v 0.475000 0.975000 0.015299
v 0.025000 0.975000 0.015299
v 0.025000 0.775000 0.015299
v 0.725000 0.525000 0.015299
v 0.725000 0.725000 0.015299
v 0.000000 0.725000 0.015299
v 0.275000 0.725000 0.015299
v 0.275000 0.525000 0.015299
v -0.000000 0.525000 0.015299
v -0.000000 0.500000 -0.000000
v 0.225000 0.725000 0.015299
v 0.225000 0.525000 0.015299
v -0.000000 0.750000 -0.000000
v 0.750000 0.500000 -0.000000
v 0.775000 0.725000 0.015299
v 0.775000 0.525000 0.015299
v 0.750000 0.000000 -0.000000
v 0.750000 0.250000 -0.000000
v 0.775000 0.225000 0.015299
v 0.775000 0.025000 0.015299
v -0.000000 0.000000 -0.000000
v 0.225000 0.025000 0.015299
v 0.225000 0.225000 0.015299
v -0.000000 0.250000 -0.000000
v -0.000000 0.025000 0.015299
v -0.000000 0.225000 0.015299
v 1.000000 0.525000 0.015299
v 1.000000 0.725000 0.015299
v 1.000000 0.250000 -0.000000
v 1.000000 0.025000 0.015299
v 1.000000 0.225000 0.015299
v 1.000000 0.500000 -0.072846
v 1.000000 0.750000 -0.072846
v 0.250000 -0.000000 -0.072846
v 0.500000 1.000000 -0.072846
v -0.000000 0.725000 -0.072846
v -0.000000 0.525000 -0.072846
v -0.000000 0.500000 -0.072846
v -0.000000 0.750000 -0.072846
v 0.750000 0.000000 -0.072846
v -0.000000 0.000000 -0.072846
v -0.000000 0.250000 -0.072846
v -0.000000 0.025000 -0.072846
v -0.000000 0.225000 -0.072846
v 1.000000 0.525000 -0.072846
v 1.000000 0.725000 -0.072846
v 1.000000 0.250000 -0.072846
v 1.000000 0.025000 -0.072846
v 1.000000 0.225000 -0.072846
vn -0.0000 -0.0000 1.0000
vn -0.0000 0.5220 0.8530
vn -0.0000 -0.5220 0.8530
vn 0.5220 -0.0000 0.8530
vn -0.5220 -0.0000 0.8530
vn 1.0000 -0.0000 -0.0000
vn -0.0000 1.0000 -0.0000
vn -1.0000 -0.0000 -0.0000
vn -0.0000 -1.0000 -0.0000
vn -0.0000 -0.0000 -1.0000
vt 0.556250 0.877922
vt 0.506250 0.931250
vt 0.506250 0.877922
vt 0.562500 0.875219
vt 0.556250 0.818750
vt 0.562500 0.812500
vt 0.500000 0.875000
vt 0.506250 0.818750
vt 0.506250 0.875219
vt 0.431250 0.818750
vt 0.381250 0.931250
vt 0.381250 0.818750
vt 0.562500 0.877922
vt 0.556250 0.931250
vt 0.500000 0.877922
vt 0.500000 0.937500
vt 0.493750 0.756250
vt 0.443750 0.868750
vt 0.443750 0.756250
vt 0.493750 0.881250
vt 0.443750 0.993750
vt 0.443750 0.881250
vt 0.562500 0.875000
vt 0.618750 0.756250
vt 0.568750 0.868750
vt 0.568750 0.756250
vt 0.500000 0.812500
vt 0.618750 0.881250
vt 0.568750 0.993750
vt 0.568750 0.881250
vt 0.375000 0.812500
vt 0.375000 0.937500
vt 0.437500 0.937500
vt 0.431250 0.931250
vt 0.493750 0.868750
vt 0.500000 0.750000
vt 0.437500 0.750000
vt 0.437500 0.875000
vt 0.437500 0.812500
vt 0.493750 0.993750
vt 0.500000 1.000000
vt 0.618750 0.868750
vt 0.625000 0.750000
vt 0.625000 0.875000
vt 0.562500 0.750000
vt 0.625000 1.000000
vt 0.562500 1.000000
vt 0.562500 0.937500
vt 0.618750 0.993750
vt 0.556250 0.875219
vt 0.437500 1.000000
s 0
usemtl Material
f 62/1/1 50/2/1 61/3/1
f 47/4/2 45/5/2 17/6/2
f 44/7/3 46/8/3 43/9/3
f 45/5/1 43/9/1 46/8/1
f 65/1/1 54/2/1 64/3/1
f 19/10/1 21/11/1 18/12/1
f 5/13/2 49/14/2 62/1/2
f 4/15/3 50/2/3 48/16/3
f 23/17/1 25/18/1 22/19/1
f 27/20/1 29/21/1 26/22/1
f 39/5/2 16/23/2 41/14/2
f 31/24/1 33/25/1 30/26/1
f 17/6/4 46/8/4 14/27/4
f 35/28/1 37/29/1 34/30/1
f 38/8/1 41/14/1 42/2/1
f 51/31/4 19/10/4 18/12/4
f 7/32/3 18/12/3 21/11/3
f 12/33/5 21/11/5 20/34/5
f 23/17/2 48/27/2 24/35/2
f 4/36/4 22/19/4 63/37/4
f 25/18/3 11/38/3 52/39/3
f 11/38/5 24/35/5 13/7/5
f 27/20/2 14/16/2 28/40/2
f 11/38/4 27/20/4 26/22/4
f 29/21/3 12/33/3 26/22/3
f 44/41/5 29/21/5 28/40/5
f 32/42/2 2/43/2 9/44/2
f 2/43/4 30/26/4 5/45/4
f 33/25/3 16/23/3 15/6/3
f 9/44/5 33/25/5 32/42/5
f 3/46/2 35/28/2 9/44/2
f 9/44/4 34/30/4 16/23/4
f 37/29/3 47/47/3 17/48/3
f 3/46/5 37/29/5 36/49/5
f 42/2/3 14/16/3 13/7/3
f 15/6/4 38/8/4 48/27/4
f 48/16/5 49/14/5 15/48/5
f 14/16/5 41/14/5 17/48/5
f 19/10/2 52/39/2 11/38/2
f 63/13/2 53/14/2 65/1/2
f 1/15/3 54/2/3 51/16/3
f 51/16/5 53/14/5 52/48/5
f 12/6/4 56/8/4 7/27/4
f 57/5/1 59/9/1 56/8/1
f 55/7/3 56/8/3 59/9/3
f 58/4/2 57/5/2 12/6/2
f 1/15/6 82/3/6 64/3/6
f 4/15/6 79/3/6 61/3/6
f 9/44/7 8/43/7 69/44/7
f 2/43/6 67/45/6 8/43/6
f 5/13/6 80/1/6 67/13/6
f 3/46/8 73/47/8 47/47/8
f 1/15/9 74/16/9 10/15/9
f 60/50/8 77/9/8 59/9/8
f 47/4/8 70/50/8 40/50/8
f 58/4/8 78/50/8 60/50/8
f 44/7/8 71/9/8 72/7/8
f 65/1/6 82/3/6 83/1/6
f 9/44/7 6/46/7 3/46/7
f 40/50/8 71/9/8 43/9/8
f 63/13/6 83/1/6 81/13/6
f 55/7/9 68/27/9 7/27/9
f 51/31/9 68/32/9 74/31/9
f 44/41/8 76/51/8 58/51/8
f 61/3/6 80/1/6 62/1/6
f 55/7/8 77/9/8 75/7/8
f 4/36/6 81/37/6 66/36/6
f 68/27/10 76/51/10 72/7/10
f 62/1/1 49/14/1 50/2/1
f 47/4/2 40/50/2 45/5/2
f 44/7/3 14/27/3 46/8/3
f 45/5/1 40/50/1 43/9/1
f 65/1/1 53/14/1 54/2/1
f 19/10/1 20/34/1 21/11/1
f 5/13/2 15/48/2 49/14/2
f 4/15/3 61/3/3 50/2/3
f 23/17/1 24/35/1 25/18/1
f 27/20/1 28/40/1 29/21/1
f 15/6/2 16/23/2 39/5/2
f 16/23/2 17/48/2 41/14/2
f 31/24/1 32/42/1 33/25/1
f 17/6/4 45/5/4 46/8/4
f 35/28/1 36/49/1 37/29/1
f 38/8/1 39/5/1 41/14/1
f 51/31/4 52/39/4 19/10/4
f 7/32/3 51/31/3 18/12/3
f 12/33/5 7/32/5 21/11/5
f 4/36/2 48/27/2 23/17/2
f 48/27/2 13/7/2 24/35/2
f 4/36/4 23/17/4 22/19/4
f 52/39/3 63/37/3 22/19/3
f 22/19/3 25/18/3 52/39/3
f 11/38/5 25/18/5 24/35/5
f 13/7/2 14/16/2 27/20/2
f 14/16/2 44/41/2 28/40/2
f 11/38/4 13/7/4 27/20/4
f 58/51/3 12/33/3 29/21/3
f 12/33/3 11/38/3 26/22/3
f 44/41/5 58/51/5 29/21/5
f 32/42/2 31/24/2 2/43/2
f 2/43/4 31/24/4 30/26/4
f 15/6/3 5/45/3 30/26/3
f 30/26/3 33/25/3 15/6/3
f 9/44/5 16/23/5 33/25/5
f 3/46/2 36/49/2 35/28/2
f 9/44/4 35/28/4 34/30/4
f 17/48/3 16/23/3 34/30/3
f 34/30/3 37/29/3 17/48/3
f 3/46/5 47/47/5 37/29/5
f 13/7/3 48/27/3 38/8/3
f 38/8/3 42/2/3 13/7/3
f 15/6/4 39/5/4 38/8/4
f 48/16/5 50/2/5 49/14/5
f 14/16/5 42/2/5 41/14/5
f 11/38/2 12/33/2 20/34/2
f 20/34/2 19/10/2 11/38/2
f 63/13/2 52/48/2 53/14/2
f 1/15/3 64/3/3 54/2/3
f 51/16/5 54/2/5 53/14/5
f 12/6/4 57/5/4 56/8/4
f 57/5/1 60/50/1 59/9/1
f 55/7/3 7/27/3 56/8/3
f 58/4/2 60/50/2 57/5/2
f 1/15/6 10/15/6 82/3/6
f 4/15/6 66/15/6 79/3/6
f 9/44/7 2/43/7 8/43/7
f 2/43/6 5/45/6 67/45/6
f 5/13/6 62/1/6 80/1/6
f 3/46/8 6/46/8 73/47/8
f 1/15/9 51/16/9 74/16/9
f 60/50/8 78/50/8 77/9/8
f 47/4/8 73/4/8 70/50/8
f 58/4/8 76/4/8 78/50/8
f 44/7/8 43/9/8 71/9/8
f 65/1/6 64/3/6 82/3/6
f 9/44/7 69/44/7 6/46/7
f 40/50/8 70/50/8 71/9/8
f 63/13/6 65/1/6 83/1/6
f 55/7/9 75/7/9 68/27/9
f 51/31/9 7/32/9 68/32/9
f 44/41/8 72/41/8 76/51/8
f 61/3/6 79/3/6 80/1/6
f 55/7/8 59/9/8 77/9/8
f 4/36/6 63/37/6 81/37/6
f 69/44/10 8/43/10 67/13/10
f 80/1/10 79/3/10 69/44/10
f 79/3/10 66/36/10 69/44/10
f 69/44/10 67/13/10 80/1/10
f 73/47/10 6/46/10 69/44/10
f 72/7/10 71/9/10 69/44/10
f 71/9/10 70/50/10 69/44/10
f 70/50/10 73/47/10 69/44/10
f 66/36/10 81/13/10 74/31/10
f 81/13/10 83/1/10 74/31/10
f 82/3/10 10/15/10 74/31/10
f 69/44/10 66/36/10 72/7/10
f 72/7/10 66/36/10 74/31/10
f 83/1/10 82/3/10 74/31/10
f 74/31/10 68/27/10 72/7/10
f 68/27/10 75/7/10 77/9/10
f 76/51/10 68/27/10 78/50/10
f 77/9/10 78/50/10 68/27/10
