# Blender 4.5.2 LTS
# www.blender.org
mtllib Small_Fence.mtl
o Cube.001
v -0.011973 0.000000 0.012196
v -0.011973 0.341781 0.012196
v -0.011973 0.000000 -0.012196
v -0.011973 0.341781 -0.012196
v 0.011973 0.000000 0.012196
v 0.011973 0.341781 0.012196
v 0.011973 0.000000 -0.012196
v 0.011973 0.341781 -0.012196
v -0.018262 0.352687 0.018601
v -0.018262 0.352687 -0.018601
v 0.018262 0.352687 -0.018601
v 0.018262 0.352687 0.018601
v -0.000000 0.425500 0.000000
v 0.113027 0.000000 0.012196
v 0.113027 0.341781 0.012196
v 0.113027 0.000000 -0.012196
v 0.113027 0.341781 -0.012196
v 0.136973 0.000000 0.012196
v 0.136973 0.341781 0.012196
v 0.136973 0.000000 -0.012196
v 0.136973 0.341781 -0.012196
v 0.106738 0.352687 0.018601
v 0.106738 0.352687 -0.018601
v 0.143262 0.352687 -0.018601
v 0.143262 0.352687 0.018601
v 0.125000 0.425500 0.000000
v 0.238027 0.000000 0.012196
v 0.238027 0.341781 0.012196
v 0.238027 0.000000 -0.012196
v 0.238027 0.341781 -0.012196
v 0.261973 0.000000 0.012196
v 0.261973 0.341781 0.012196
v 0.261973 0.000000 -0.012196
v 0.261973 0.341781 -0.012196
v 0.231738 0.352687 0.018601
v 0.231738 0.352687 -0.018601
v 0.268262 0.352687 -0.018601
v 0.268262 0.352687 0.018601
v 0.250000 0.425500 0.000000
v 0.363027 0.000000 0.012196
v 0.363027 0.341781 0.012196
v 0.363027 0.000000 -0.012196
v 0.363027 0.341781 -0.012196
v 0.386973 0.000000 0.012196
v 0.386973 0.341781 0.012196
v 0.386973 0.000000 -0.012196
v 0.386973 0.341781 -0.012196
v 0.356738 0.352687 0.018601
v 0.356738 0.352687 -0.018601
v 0.393262 0.352687 -0.018601
v 0.393262 0.352687 0.018601
v 0.375000 0.425500 0.000000
v 0.488027 0.000000 0.012196
v 0.488027 0.341781 0.012196
v 0.488027 0.000000 -0.012196
v 0.488027 0.341781 -0.012196
v 0.511973 0.000000 0.012196
v 0.511973 0.341781 0.012196
v 0.511973 0.000000 -0.012196
v 0.511973 0.341781 -0.012196
v 0.481738 0.352687 0.018601
v 0.481738 0.352687 -0.018601
v 0.518262 0.352687 -0.018601
v 0.518262 0.352687 0.018601
v 0.500000 0.425500 0.000000
v 0.613027 0.000000 0.012196
v 0.613027 0.341781 0.012196
v 0.613027 0.000000 -0.012196
v 0.613027 0.341781 -0.012196
v 0.636973 0.000000 0.012196
v 0.636973 0.341781 0.012196
v 0.636973 0.000000 -0.012196
v 0.636973 0.341781 -0.012196
v 0.606738 0.352687 0.018601
v 0.606738 0.352687 -0.018601
v 0.643262 0.352687 -0.018601
v 0.643262 0.352687 0.018601
v 0.625000 0.425500 0.000000
v 0.738027 0.000000 0.012196
v 0.738027 0.341781 0.012196
v 0.738027 0.000000 -0.012196
v 0.738027 0.341781 -0.012196
v 0.761973 0.000000 0.012196
v 0.761973 0.341781 0.012196
v 0.761973 0.000000 -0.012196
v 0.761973 0.341781 -0.012196
v 0.731738 0.352687 0.018601
v 0.731738 0.352687 -0.018601
v 0.768262 0.352687 -0.018601
v 0.768262 0.352687 0.018601
v 0.750000 0.425500 0.000000
v 0.863027 0.000000 0.012196
v 0.863027 0.341781 0.012196
v 0.863027 0.000000 -0.012196
v 0.863027 0.341781 -0.012196
v 0.886973 0.000000 0.012196
v 0.886973 0.341781 0.012196
v 0.886973 0.000000 -0.012196
v 0.886973 0.341781 -0.012196
v 0.856738 0.352687 0.018601
v 0.856738 0.352687 -0.018601
v 0.893262 0.352687 -0.018601
v 0.893262 0.352687 0.018601
v 0.875000 0.425500 0.000000
v 0.988027 0.000000 0.012196
v 0.988027 0.341781 0.012196
v 0.988027 0.000000 -0.012196
v 0.988027 0.341781 -0.012196
v 1.011973 0.000000 0.012196
v 1.011973 0.341781 0.012196
v 1.011973 0.000000 -0.012196
v 1.011973 0.341781 -0.012196
v 0.981738 0.352687 0.018601
v 0.981738 0.352687 -0.018601
v 1.018262 0.352687 -0.018601
v 1.018262 0.352687 0.018601
v 1.000000 0.425500 0.000000
v -0.011973 0.326238 0.014375
v -0.011973 0.328505 0.012108
v 1.011973 0.328505 0.012108
v 1.011973 0.326238 0.014375
v -0.011973 0.328505 -0.012108
v -0.011973 0.326238 -0.014375
v 1.011973 0.326238 -0.014375
v 1.011973 0.328505 -0.012108
v -0.011973 0.300279 0.012108
v -0.011973 0.302547 0.014375
v 1.011973 0.302547 0.014375
v 1.011973 0.300279 0.012108
v -0.011973 0.302547 -0.014375
v -0.011973 0.300279 -0.012108
v 1.011973 0.300279 -0.012108
v 1.011973 0.302547 -0.014375
v -0.011973 0.037810 0.023688
v -0.011973 0.041546 0.019952
v 1.011973 0.041546 0.019952
v 1.011973 0.037810 0.023688
v -0.011973 0.041546 -0.019952
v -0.011973 0.037810 -0.023688
v 1.011973 0.037810 -0.023688
v 1.011973 0.041546 -0.019952
v -0.011973 -0.004966 0.019952
v -0.011973 -0.001229 0.023688
v 1.011973 -0.001230 0.023688
v 1.011973 -0.004966 0.019952
v -0.011973 -0.001229 -0.023688
v -0.011973 -0.004966 -0.019952
v 1.011973 -0.004966 -0.019952
v 1.011973 -0.001230 -0.023688
vn -1.0000 -0.0000 -0.0000
vn -0.0000 -0.0000 -1.0000
vn 1.0000 -0.0000 -0.0000
vn -0.0000 -0.0000 1.0000
vn -0.0000 -1.0000 -0.0000
vn -0.0000 -0.5064 -0.8623
vn 0.9700 0.2433 -0.0000
vn 0.8663 -0.4995 -0.0000
vn -0.8663 -0.4995 -0.0000
vn -0.0000 -0.5064 0.8623
vn -0.9700 0.2433 -0.0000
vn -0.0000 0.2475 0.9689
vn -0.0000 0.2475 -0.9689
vn -0.0000 0.7071 0.7071
vn -0.0000 0.7071 -0.7071
vn -0.0000 -0.7071 -0.7071
vn -0.0000 -0.7071 0.7071
vn -0.0000 1.0000 -0.0000
vt 0.625000 0.000000
vt 0.375000 0.250000
vt 0.375000 0.000000
vt 0.625000 0.250000
vt 0.375000 0.500000
vt 0.625000 0.500000
vt 0.375000 0.750000
vt 0.625000 0.750000
vt 0.375000 1.000000
vt 0.125000 0.750000
vt 0.125000 0.500000
vt 0.625000 1.000000
vt 0.625000 0.979918
vt 0.375000 0.988398
vt 0.375000 0.979918
vt 0.375000 0.270082
vt 0.625000 0.232473
vt 0.625000 0.270082
vt 0.375000 0.519715
vt 0.625000 0.479918
vt 0.625000 0.519715
vt 0.375000 0.770082
vt 0.625000 0.730285
vt 0.625000 0.770082
vt 0.625000 0.019715
vt 0.375000 0.232473
vt 0.375000 0.019715
vt 0.375000 0.479918
vt 0.375000 0.730285
vt 0.625000 0.988398
s 0
f 2/1/1 3/2/1 1/3/1
f 4/4/2 7/5/2 3/2/2
f 8/6/3 5/7/3 7/5/3
f 6/8/4 1/9/4 5/7/4
f 7/5/5 1/10/5 3/11/5
f 4/4/6 11/6/6 8/6/6
f 12/8/7 11/6/7 13/8/7
f 8/6/8 12/8/8 6/8/8
f 2/1/9 10/4/9 4/4/9
f 6/8/10 9/12/10 2/12/10
f 10/4/11 9/1/11 13/4/11
f 9/12/12 12/8/12 13/12/12
f 11/6/13 10/4/13 13/6/13
f 15/1/1 16/2/1 14/3/1
f 17/4/2 20/5/2 16/2/2
f 21/6/3 18/7/3 20/5/3
f 19/8/4 14/9/4 18/7/4
f 20/5/5 14/10/5 16/11/5
f 17/4/6 24/6/6 21/6/6
f 25/8/7 24/6/7 26/8/7
f 21/6/8 25/8/8 19/8/8
f 15/1/9 23/4/9 17/4/9
f 15/12/10 25/8/10 22/12/10
f 23/4/11 22/1/11 26/4/11
f 22/12/12 25/8/12 26/12/12
f 24/6/13 23/4/13 26/6/13
f 28/1/1 29/2/1 27/3/1
f 30/4/2 33/5/2 29/2/2
f 34/6/3 31/7/3 33/5/3
f 32/8/4 27/9/4 31/7/4
f 33/5/5 27/10/5 29/11/5
f 30/4/6 37/6/6 34/6/6
f 38/8/7 37/6/7 39/8/7
f 34/6/8 38/8/8 32/8/8
f 28/1/9 36/4/9 30/4/9
f 32/8/10 35/12/10 28/12/10
f 36/4/11 35/1/11 39/4/11
f 35/12/12 38/8/12 39/12/12
f 37/6/13 36/4/13 39/6/13
f 41/1/1 42/2/1 40/3/1
f 43/4/2 46/5/2 42/2/2
f 47/6/3 44/7/3 46/5/3
f 45/8/4 40/9/4 44/7/4
f 46/5/5 40/10/5 42/11/5
f 43/4/6 50/6/6 47/6/6
f 51/8/7 50/6/7 52/8/7
f 47/6/8 51/8/8 45/8/8
f 41/1/9 49/4/9 43/4/9
f 45/8/10 48/12/10 41/12/10
f 49/4/11 48/1/11 52/4/11
f 48/12/12 51/8/12 52/12/12
f 50/6/13 49/4/13 52/6/13
f 54/1/1 55/2/1 53/3/1
f 56/4/2 59/5/2 55/2/2
f 60/6/3 57/7/3 59/5/3
f 58/8/4 53/9/4 57/7/4
f 59/5/5 53/10/5 55/11/5
f 60/6/6 62/4/6 63/6/6
f 64/8/7 63/6/7 65/8/7
f 60/6/8 64/8/8 58/8/8
f 54/1/9 62/4/9 56/4/9
f 58/8/10 61/12/10 54/12/10
f 62/4/11 61/1/11 65/4/11
f 61/12/12 64/8/12 65/12/12
f 63/6/13 62/4/13 65/6/13
f 67/1/1 68/2/1 66/3/1
f 69/4/2 72/5/2 68/2/2
f 73/6/3 70/7/3 72/5/3
f 71/8/4 66/9/4 70/7/4
f 72/5/5 66/10/5 68/11/5
f 69/4/6 76/6/6 73/6/6
f 77/8/7 76/6/7 78/8/7
f 73/6/8 77/8/8 71/8/8
f 67/1/9 75/4/9 69/4/9
f 71/8/10 74/12/10 67/12/10
f 75/4/11 74/1/11 78/4/11
f 74/12/12 77/8/12 78/12/12
f 76/6/13 75/4/13 78/6/13
f 80/1/1 81/2/1 79/3/1
f 82/4/2 85/5/2 81/2/2
f 86/6/3 83/7/3 85/5/3
f 84/8/4 79/9/4 83/7/4
f 85/5/5 79/10/5 81/11/5
f 82/4/6 89/6/6 86/6/6
f 90/8/7 89/6/7 91/8/7
f 86/6/8 90/8/8 84/8/8
f 80/1/9 88/4/9 82/4/9
f 84/8/10 87/12/10 80/12/10
f 88/4/11 87/1/11 91/4/11
f 87/12/12 90/8/12 91/12/12
f 89/6/13 88/4/13 91/6/13
f 93/1/1 94/2/1 92/3/1
f 95/4/2 98/5/2 94/2/2
f 99/6/3 96/7/3 98/5/3
f 97/8/4 92/9/4 96/7/4
f 98/5/5 92/10/5 94/11/5
f 95/4/6 102/6/6 99/6/6
f 103/8/7 102/6/7 104/8/7
f 99/6/8 103/8/8 97/8/8
f 93/1/9 101/4/9 95/4/9
f 97/8/10 100/12/10 93/12/10
f 101/4/11 100/1/11 104/4/11
f 100/12/12 103/8/12 104/12/12
f 102/6/13 101/4/13 104/6/13
f 106/1/1 107/2/1 105/3/1
f 108/4/2 111/5/2 107/2/2
f 112/6/3 109/7/3 111/5/3
f 110/8/4 105/9/4 109/7/4
f 111/5/5 105/10/5 107/11/5
f 108/4/6 115/6/6 112/6/6
f 116/8/7 115/6/7 117/8/7
f 112/6/8 116/8/8 110/8/8
f 106/1/9 114/4/9 108/4/9
f 110/8/10 113/12/10 106/12/10
f 114/4/11 113/1/11 117/4/11
f 113/12/12 116/8/12 117/12/12
f 115/6/13 114/4/13 117/6/13
f 121/13/14 119/14/14 118/15/14
f 123/16/15 125/17/15 124/18/15
f 131/19/16 133/20/16 132/21/16
f 127/22/17 129/23/17 128/24/17
f 127/22/1 118/15/1 119/14/1
f 120/25/18 122/26/18 119/27/18
f 128/24/4 118/15/4 127/22/4
f 133/20/3 124/18/3 125/17/3
f 124/18/2 130/28/2 123/16/2
f 132/21/5 126/29/5 131/19/5
f 137/13/14 135/14/14 134/15/14
f 139/16/15 141/17/15 140/18/15
f 147/19/16 149/20/16 148/21/16
f 143/22/17 145/23/17 144/24/17
f 143/22/1 134/15/1 135/14/1
f 136/25/18 138/26/18 135/27/18
f 144/24/4 134/15/4 143/22/4
f 149/20/3 140/18/3 141/17/3
f 140/18/2 146/28/2 139/16/2
f 148/21/5 142/29/5 147/19/5
f 2/1/1 4/4/1 3/2/1
f 4/4/2 8/6/2 7/5/2
f 8/6/3 6/8/3 5/7/3
f 6/8/4 2/12/4 1/9/4
f 7/5/5 5/7/5 1/10/5
f 4/4/6 10/4/6 11/6/6
f 8/6/8 11/6/8 12/8/8
f 2/1/9 9/1/9 10/4/9
f 6/8/10 12/8/10 9/12/10
f 15/1/1 17/4/1 16/2/1
f 17/4/2 21/6/2 20/5/2
f 21/6/3 19/8/3 18/7/3
f 19/8/4 15/12/4 14/9/4
f 20/5/5 18/7/5 14/10/5
f 17/4/6 23/4/6 24/6/6
f 21/6/8 24/6/8 25/8/8
f 15/1/9 22/1/9 23/4/9
f 15/12/10 19/8/10 25/8/10
f 28/1/1 30/4/1 29/2/1
f 30/4/2 34/6/2 33/5/2
f 34/6/3 32/8/3 31/7/3
f 32/8/4 28/12/4 27/9/4
f 33/5/5 31/7/5 27/10/5
f 30/4/6 36/4/6 37/6/6
f 34/6/8 37/6/8 38/8/8
f 28/1/9 35/1/9 36/4/9
f 32/8/10 38/8/10 35/12/10
f 41/1/1 43/4/1 42/2/1
f 43/4/2 47/6/2 46/5/2
f 47/6/3 45/8/3 44/7/3
f 45/8/4 41/12/4 40/9/4
f 46/5/5 44/7/5 40/10/5
f 43/4/6 49/4/6 50/6/6
f 47/6/8 50/6/8 51/8/8
f 41/1/9 48/1/9 49/4/9
f 45/8/10 51/8/10 48/12/10
f 54/1/1 56/4/1 55/2/1
f 56/4/2 60/6/2 59/5/2
f 60/6/3 58/8/3 57/7/3
f 58/8/4 54/12/4 53/9/4
f 59/5/5 57/7/5 53/10/5
f 60/6/6 56/4/6 62/4/6
f 60/6/8 63/6/8 64/8/8
f 54/1/9 61/1/9 62/4/9
f 58/8/10 64/8/10 61/12/10
f 67/1/1 69/4/1 68/2/1
f 69/4/2 73/6/2 72/5/2
f 73/6/3 71/8/3 70/7/3
f 71/8/4 67/12/4 66/9/4
f 72/5/5 70/7/5 66/10/5
f 69/4/6 75/4/6 76/6/6
f 73/6/8 76/6/8 77/8/8
f 67/1/9 74/1/9 75/4/9
f 71/8/10 77/8/10 74/12/10
f 80/1/1 82/4/1 81/2/1
f 82/4/2 86/6/2 85/5/2
f 86/6/3 84/8/3 83/7/3
f 84/8/4 80/12/4 79/9/4
f 85/5/5 83/7/5 79/10/5
f 82/4/6 88/4/6 89/6/6
f 86/6/8 89/6/8 90/8/8
f 80/1/9 87/1/9 88/4/9
f 84/8/10 90/8/10 87/12/10
f 93/1/1 95/4/1 94/2/1
f 95/4/2 99/6/2 98/5/2
f 99/6/3 97/8/3 96/7/3
f 97/8/4 93/12/4 92/9/4
f 98/5/5 96/7/5 92/10/5
f 95/4/6 101/4/6 102/6/6
f 99/6/8 102/6/8 103/8/8
f 93/1/9 100/1/9 101/4/9
f 97/8/10 103/8/10 100/12/10
f 106/1/1 108/4/1 107/2/1
f 108/4/2 112/6/2 111/5/2
f 112/6/3 110/8/3 109/7/3
f 110/8/4 106/12/4 105/9/4
f 111/5/5 109/7/5 105/10/5
f 108/4/6 114/4/6 115/6/6
f 112/6/8 115/6/8 116/8/8
f 106/1/9 113/1/9 114/4/9
f 110/8/10 116/8/10 113/12/10
f 121/13/14 120/30/14 119/14/14
f 123/16/15 122/26/15 125/17/15
f 131/19/16 130/28/16 133/20/16
f 127/22/17 126/29/17 129/23/17
f 119/14/1 122/26/1 131/19/1
f 122/26/1 123/16/1 131/19/1
f 123/16/1 130/28/1 131/19/1
f 131/19/1 126/29/1 119/14/1
f 126/29/1 127/22/1 119/14/1
f 120/25/18 125/17/18 122/26/18
f 128/24/4 121/13/4 118/15/4
f 125/17/3 120/30/3 129/23/3
f 120/30/3 121/13/3 129/23/3
f 121/13/3 128/24/3 129/23/3
f 129/23/3 132/21/3 125/17/3
f 132/21/3 133/20/3 125/17/3
f 124/18/2 133/20/2 130/28/2
f 132/21/5 129/23/5 126/29/5
f 137/13/14 136/30/14 135/14/14
f 139/16/15 138/26/15 141/17/15
f 147/19/16 146/28/16 149/20/16
f 143/22/17 142/29/17 145/23/17
f 135/14/1 138/26/1 147/19/1
f 138/26/1 139/16/1 147/19/1
f 139/16/1 146/28/1 147/19/1
f 147/19/1 142/29/1 135/14/1
f 142/29/1 143/22/1 135/14/1
f 136/25/18 141/17/18 138/26/18
f 144/24/4 137/13/4 134/15/4
f 141/17/3 136/30/3 145/23/3
f 136/30/3 137/13/3 145/23/3
f 137/13/3 144/24/3 145/23/3
f 145/23/3 148/21/3 141/17/3
f 148/21/3 149/20/3 141/17/3
f 140/18/2 149/20/2 146/28/2
f 148/21/5 145/23/5 142/29/5
